<svg version="1.1" xmlns="http://www.w3.org/2000/svg" xmlns:xlink="http://www.w3.org/1999/xlink" x="0px" y="0px"  width="14" height="12"  viewBox="0 0 1000 1000" enable-background="new 0 0 1000 1000" xml:space="preserve">
<metadata> Svg Vector Icons : http://www.onlinewebfonts.com/icon </metadata>
<g><g fill="#b98348"><path d="M990,156.3V223H856.6v133.3h-66.7V223H656.6v-66.7h133.3V23h66.7v133.4H990z M568.9,77.4H493c53.6,30.7,82,93.8,82,163.4c0,63.9-35.3,115.4-85.4,154.5c-48.8,38.1-58.1,54.1-58.1,86.5c0,27.6,58.4,68.9,85.1,89c93.3,70,112.2,114,112.2,201.6c0,109.2-117.7,217.9-309.2,217.9C151.7,990.3,10,922,10,812.8c0-110.9,117.5-226.4,285.5-226.4c18.3,0,35.1-0.5,52.4-0.5c-23-22.4-41.5-41.6-41.5-75.4c0-20.1,6.4-39.2,15.3-56.4c-9.1,0.7-18.4,1.2-28,1.2c-137.9,0-218.3-96.9-218.3-218.5C75.3,117.8,197.7,9.7,344.3,9.7c75.6,0,289.1,0,289.1,0L568.9,77.4z M408.8,632.5c-22.8-7.4-48.1-11.8-75.2-12.1c-116.1-1.3-214.4,73.3-214.4,159.9c0,88.3,83.8,161.7,199.9,161.7c163.3,0,220.1-68.9,220.1-157.2c0-10.7-1.4-21-3.6-31.1C522.6,703.7,471.9,676.3,408.8,632.5z M458.8,245.2C445.4,142.9,378.8,59,300.9,56.6c-77.9-2.3-130.2,76-116.6,178.3c13.4,102.3,87.4,173.8,165.3,176.2C427.4,413.3,472.2,347.5,458.8,245.2z"/></g><g></g><g></g><g></g><g></g><g></g><g></g><g></g><g></g><g></g><g></g><g></g><g></g><g></g><g></g><g></g></g>
</svg>