<svg 
 xmlns="http://www.w3.org/2000/svg"
 xmlns:xlink="http://www.w3.org/1999/xlink"
 width="11px" height="13px">
<path fill-rule="evenodd"  fill-opacity="0.902" fill="#b98348"
 d="M8.436,6.698 C8.882,6.698 9.265,6.581 9.584,6.275 C9.904,5.969 10.063,5.619 10.063,5.191 C10.063,4.761 9.904,4.518 9.584,4.212 C9.263,3.906 8.879,3.876 8.430,3.876 L3.439,3.876 L3.439,2.084 C3.439,1.656 3.366,1.287 3.050,0.982 C2.734,0.675 2.396,0.521 1.953,0.521 C1.496,0.521 1.202,0.671 0.886,0.972 C0.569,1.273 0.504,1.644 0.504,2.085 L0.504,8.321 C0.504,9.608 0.908,10.666 1.859,11.579 C2.809,12.492 3.881,12.905 5.221,12.905 L8.436,12.905 C8.883,12.905 9.265,12.795 9.584,12.490 C9.904,12.183 10.063,11.838 10.063,11.410 C10.063,10.980 9.904,10.733 9.584,10.427 C9.265,10.119 8.882,10.084 8.436,10.084 L5.219,10.084 C4.773,10.084 4.307,9.825 3.994,9.525 C3.682,9.224 3.439,8.749 3.439,8.319 L3.439,6.698 L8.436,6.698 L8.436,6.698 Z"/>
</svg>